<mxfile host="app.diagrams.net" modified="2021-06-03T01:58:47.955Z" agent="5.0 (Windows NT 10.0; Win64; x64) AppleWebKit/537.36 (KHTML, like Gecko) Chrome/90.0.4430.212 Safari/537.36" etag="KBzeAUxu0q9EpAG3YjWN" version="14.7.3" type="github">
  <diagram id="7QlxdeWSu62D0qtYst9v" name="Page-1">
    <mxGraphModel dx="1703" dy="792" grid="1" gridSize="10" guides="1" tooltips="1" connect="1" arrows="1" fold="1" page="1" pageScale="1" pageWidth="850" pageHeight="1100" math="0" shadow="0">
      <root>
        <mxCell id="0" />
        <mxCell id="1" parent="0" />
        <mxCell id="q1d7tHSpAYXLzPX4knUf-54" value="" style="rounded=0;whiteSpace=wrap;html=1;" vertex="1" parent="1">
          <mxGeometry x="200" y="20" width="790" height="540" as="geometry" />
        </mxCell>
        <mxCell id="q1d7tHSpAYXLzPX4knUf-1" value="" style="fontColor=#0066CC;verticalAlign=top;verticalLabelPosition=bottom;labelPosition=center;align=center;html=1;outlineConnect=0;fillColor=#CCCCCC;strokeColor=#6881B3;gradientColor=none;gradientDirection=north;strokeWidth=2;shape=mxgraph.networks.radio_tower;" vertex="1" parent="1">
          <mxGeometry x="30" y="120" width="55" height="100" as="geometry" />
        </mxCell>
        <mxCell id="q1d7tHSpAYXLzPX4knUf-2" value="" style="verticalLabelPosition=bottom;shadow=0;dashed=0;align=center;html=1;verticalAlign=top;shape=mxgraph.electrical.radio.aerial_-_antenna_1;" vertex="1" parent="1">
          <mxGeometry x="100" y="160" width="60" height="60" as="geometry" />
        </mxCell>
        <mxCell id="q1d7tHSpAYXLzPX4knUf-52" style="edgeStyle=orthogonalEdgeStyle;rounded=0;orthogonalLoop=1;jettySize=auto;html=1;exitX=1;exitY=0.5;exitDx=0;exitDy=0;entryX=0;entryY=0.5;entryDx=0;entryDy=0;" edge="1" parent="1" source="q1d7tHSpAYXLzPX4knUf-3" target="q1d7tHSpAYXLzPX4knUf-5">
          <mxGeometry relative="1" as="geometry" />
        </mxCell>
        <mxCell id="q1d7tHSpAYXLzPX4knUf-3" value="Radio Front End/ User System&amp;nbsp;" style="rounded=0;whiteSpace=wrap;html=1;" vertex="1" parent="1">
          <mxGeometry x="12.5" y="225" width="170" height="90" as="geometry" />
        </mxCell>
        <mxCell id="q1d7tHSpAYXLzPX4knUf-5" value="" style="rounded=0;whiteSpace=wrap;html=1;" vertex="1" parent="1">
          <mxGeometry x="230" y="225" width="160" height="90" as="geometry" />
        </mxCell>
        <mxCell id="q1d7tHSpAYXLzPX4knUf-4" value="" style="shape=image;html=1;verticalAlign=top;verticalLabelPosition=bottom;labelBackgroundColor=#ffffff;imageAspect=0;aspect=fixed;image=https://cdn1.iconfinder.com/data/icons/line-free/24/Sound_wave-128.png" vertex="1" parent="1">
          <mxGeometry x="287.5" y="235" width="45" height="45" as="geometry" />
        </mxCell>
        <mxCell id="q1d7tHSpAYXLzPX4knUf-7" value="" style="whiteSpace=wrap;html=1;aspect=fixed;" vertex="1" parent="1">
          <mxGeometry x="440" y="100" width="330" height="330" as="geometry" />
        </mxCell>
        <mxCell id="q1d7tHSpAYXLzPX4knUf-46" style="edgeStyle=orthogonalEdgeStyle;rounded=0;orthogonalLoop=1;jettySize=auto;html=1;exitX=1;exitY=0.5;exitDx=0;exitDy=0;entryX=0.011;entryY=0.229;entryDx=0;entryDy=0;entryPerimeter=0;" edge="1" parent="1" source="q1d7tHSpAYXLzPX4knUf-8" target="q1d7tHSpAYXLzPX4knUf-9">
          <mxGeometry relative="1" as="geometry" />
        </mxCell>
        <mxCell id="q1d7tHSpAYXLzPX4knUf-49" style="edgeStyle=orthogonalEdgeStyle;rounded=0;orthogonalLoop=1;jettySize=auto;html=1;exitX=0.5;exitY=1;exitDx=0;exitDy=0;entryX=0.5;entryY=0;entryDx=0;entryDy=0;" edge="1" parent="1" source="q1d7tHSpAYXLzPX4knUf-8" target="q1d7tHSpAYXLzPX4knUf-11">
          <mxGeometry relative="1" as="geometry" />
        </mxCell>
        <mxCell id="q1d7tHSpAYXLzPX4knUf-8" value="IQ Data&amp;nbsp;" style="whiteSpace=wrap;html=1;aspect=fixed;" vertex="1" parent="1">
          <mxGeometry x="480" y="120" width="80" height="80" as="geometry" />
        </mxCell>
        <mxCell id="q1d7tHSpAYXLzPX4knUf-29" style="edgeStyle=orthogonalEdgeStyle;rounded=0;orthogonalLoop=1;jettySize=auto;html=1;exitX=1;exitY=0.5;exitDx=0;exitDy=0;entryX=0;entryY=0.5;entryDx=0;entryDy=0;" edge="1" parent="1" source="q1d7tHSpAYXLzPX4knUf-9" target="q1d7tHSpAYXLzPX4knUf-21">
          <mxGeometry relative="1" as="geometry" />
        </mxCell>
        <mxCell id="q1d7tHSpAYXLzPX4knUf-30" style="edgeStyle=orthogonalEdgeStyle;rounded=0;orthogonalLoop=1;jettySize=auto;html=1;exitX=1;exitY=0.5;exitDx=0;exitDy=0;entryX=0;entryY=0.5;entryDx=0;entryDy=0;" edge="1" parent="1" source="q1d7tHSpAYXLzPX4knUf-9" target="q1d7tHSpAYXLzPX4knUf-19">
          <mxGeometry relative="1" as="geometry" />
        </mxCell>
        <mxCell id="q1d7tHSpAYXLzPX4knUf-31" style="edgeStyle=orthogonalEdgeStyle;rounded=0;orthogonalLoop=1;jettySize=auto;html=1;exitX=1;exitY=0.5;exitDx=0;exitDy=0;entryX=0;entryY=0.75;entryDx=0;entryDy=0;" edge="1" parent="1" source="q1d7tHSpAYXLzPX4knUf-9" target="q1d7tHSpAYXLzPX4knUf-18">
          <mxGeometry relative="1" as="geometry" />
        </mxCell>
        <mxCell id="q1d7tHSpAYXLzPX4knUf-32" style="edgeStyle=orthogonalEdgeStyle;rounded=0;orthogonalLoop=1;jettySize=auto;html=1;exitX=1;exitY=0.5;exitDx=0;exitDy=0;" edge="1" parent="1" source="q1d7tHSpAYXLzPX4knUf-9" target="q1d7tHSpAYXLzPX4knUf-17">
          <mxGeometry relative="1" as="geometry" />
        </mxCell>
        <mxCell id="q1d7tHSpAYXLzPX4knUf-33" style="edgeStyle=orthogonalEdgeStyle;rounded=0;orthogonalLoop=1;jettySize=auto;html=1;exitX=1;exitY=0.5;exitDx=0;exitDy=0;entryX=0;entryY=0.25;entryDx=0;entryDy=0;" edge="1" parent="1" source="q1d7tHSpAYXLzPX4knUf-9" target="q1d7tHSpAYXLzPX4knUf-16">
          <mxGeometry relative="1" as="geometry" />
        </mxCell>
        <mxCell id="q1d7tHSpAYXLzPX4knUf-34" style="edgeStyle=orthogonalEdgeStyle;rounded=0;orthogonalLoop=1;jettySize=auto;html=1;exitX=1;exitY=0.5;exitDx=0;exitDy=0;entryX=0;entryY=0.5;entryDx=0;entryDy=0;" edge="1" parent="1" source="q1d7tHSpAYXLzPX4knUf-9" target="q1d7tHSpAYXLzPX4knUf-15">
          <mxGeometry relative="1" as="geometry" />
        </mxCell>
        <mxCell id="q1d7tHSpAYXLzPX4knUf-35" style="edgeStyle=orthogonalEdgeStyle;rounded=0;orthogonalLoop=1;jettySize=auto;html=1;exitX=1;exitY=0.5;exitDx=0;exitDy=0;entryX=0;entryY=0.75;entryDx=0;entryDy=0;" edge="1" parent="1" source="q1d7tHSpAYXLzPX4knUf-9" target="q1d7tHSpAYXLzPX4knUf-14">
          <mxGeometry relative="1" as="geometry" />
        </mxCell>
        <mxCell id="q1d7tHSpAYXLzPX4knUf-36" style="edgeStyle=orthogonalEdgeStyle;rounded=0;orthogonalLoop=1;jettySize=auto;html=1;exitX=1;exitY=0.5;exitDx=0;exitDy=0;entryX=0;entryY=0.5;entryDx=0;entryDy=0;" edge="1" parent="1" source="q1d7tHSpAYXLzPX4knUf-9" target="q1d7tHSpAYXLzPX4knUf-10">
          <mxGeometry relative="1" as="geometry" />
        </mxCell>
        <mxCell id="q1d7tHSpAYXLzPX4knUf-37" style="edgeStyle=orthogonalEdgeStyle;rounded=0;orthogonalLoop=1;jettySize=auto;html=1;exitX=1;exitY=0.5;exitDx=0;exitDy=0;entryX=0;entryY=0.25;entryDx=0;entryDy=0;" edge="1" parent="1" source="q1d7tHSpAYXLzPX4knUf-9" target="q1d7tHSpAYXLzPX4knUf-13">
          <mxGeometry relative="1" as="geometry" />
        </mxCell>
        <mxCell id="q1d7tHSpAYXLzPX4knUf-38" style="edgeStyle=orthogonalEdgeStyle;rounded=0;orthogonalLoop=1;jettySize=auto;html=1;exitX=1;exitY=0.5;exitDx=0;exitDy=0;entryX=0;entryY=0.5;entryDx=0;entryDy=0;" edge="1" parent="1" source="q1d7tHSpAYXLzPX4knUf-9" target="q1d7tHSpAYXLzPX4knUf-20">
          <mxGeometry relative="1" as="geometry" />
        </mxCell>
        <mxCell id="q1d7tHSpAYXLzPX4knUf-9" value="" style="rounded=0;whiteSpace=wrap;html=1;" vertex="1" parent="1">
          <mxGeometry x="630" y="140" width="120" height="280" as="geometry" />
        </mxCell>
        <mxCell id="q1d7tHSpAYXLzPX4knUf-10" value="WBFM" style="rounded=0;whiteSpace=wrap;html=1;" vertex="1" parent="1">
          <mxGeometry x="820" y="130" width="80" height="35" as="geometry" />
        </mxCell>
        <mxCell id="q1d7tHSpAYXLzPX4knUf-47" style="edgeStyle=orthogonalEdgeStyle;rounded=0;orthogonalLoop=1;jettySize=auto;html=1;exitX=1;exitY=0.5;exitDx=0;exitDy=0;" edge="1" parent="1" source="q1d7tHSpAYXLzPX4knUf-11" target="q1d7tHSpAYXLzPX4knUf-9">
          <mxGeometry relative="1" as="geometry" />
        </mxCell>
        <mxCell id="q1d7tHSpAYXLzPX4knUf-50" style="edgeStyle=orthogonalEdgeStyle;rounded=0;orthogonalLoop=1;jettySize=auto;html=1;exitX=0.5;exitY=1;exitDx=0;exitDy=0;entryX=0.5;entryY=0;entryDx=0;entryDy=0;" edge="1" parent="1" source="q1d7tHSpAYXLzPX4knUf-11" target="q1d7tHSpAYXLzPX4knUf-12">
          <mxGeometry relative="1" as="geometry" />
        </mxCell>
        <mxCell id="q1d7tHSpAYXLzPX4knUf-11" value="" style="whiteSpace=wrap;html=1;aspect=fixed;" vertex="1" parent="1">
          <mxGeometry x="480" y="223.75" width="82.5" height="82.5" as="geometry" />
        </mxCell>
        <mxCell id="q1d7tHSpAYXLzPX4knUf-48" style="edgeStyle=orthogonalEdgeStyle;rounded=0;orthogonalLoop=1;jettySize=auto;html=1;exitX=1;exitY=0.5;exitDx=0;exitDy=0;entryX=0;entryY=0.75;entryDx=0;entryDy=0;" edge="1" parent="1" source="q1d7tHSpAYXLzPX4knUf-12" target="q1d7tHSpAYXLzPX4knUf-9">
          <mxGeometry relative="1" as="geometry" />
        </mxCell>
        <mxCell id="q1d7tHSpAYXLzPX4knUf-12" value="" style="whiteSpace=wrap;html=1;aspect=fixed;" vertex="1" parent="1">
          <mxGeometry x="480" y="330" width="80" height="80" as="geometry" />
        </mxCell>
        <mxCell id="q1d7tHSpAYXLzPX4knUf-13" value="AM DSB" style="rounded=0;whiteSpace=wrap;html=1;" vertex="1" parent="1">
          <mxGeometry x="820" y="85" width="80" height="35" as="geometry" />
        </mxCell>
        <mxCell id="q1d7tHSpAYXLzPX4knUf-14" value="BPSK" style="rounded=0;whiteSpace=wrap;html=1;" vertex="1" parent="1">
          <mxGeometry x="820" y="180" width="80" height="35" as="geometry" />
        </mxCell>
        <mxCell id="q1d7tHSpAYXLzPX4knUf-15" value="BFSK" style="rounded=0;whiteSpace=wrap;html=1;" vertex="1" parent="1">
          <mxGeometry x="820" y="225" width="80" height="35" as="geometry" />
        </mxCell>
        <mxCell id="q1d7tHSpAYXLzPX4knUf-16" value="64 QAM" style="rounded=0;whiteSpace=wrap;html=1;" vertex="1" parent="1">
          <mxGeometry x="820" y="270" width="80" height="35" as="geometry" />
        </mxCell>
        <mxCell id="q1d7tHSpAYXLzPX4knUf-17" value="QPSK" style="rounded=0;whiteSpace=wrap;html=1;" vertex="1" parent="1">
          <mxGeometry x="820" y="320" width="80" height="35" as="geometry" />
        </mxCell>
        <mxCell id="q1d7tHSpAYXLzPX4knUf-18" value="8PSK" style="rounded=0;whiteSpace=wrap;html=1;" vertex="1" parent="1">
          <mxGeometry x="820" y="370" width="80" height="35" as="geometry" />
        </mxCell>
        <mxCell id="q1d7tHSpAYXLzPX4knUf-19" value="16 QAM" style="rounded=0;whiteSpace=wrap;html=1;" vertex="1" parent="1">
          <mxGeometry x="820" y="420" width="80" height="35" as="geometry" />
        </mxCell>
        <mxCell id="q1d7tHSpAYXLzPX4knUf-20" value="AM SSB" style="rounded=0;whiteSpace=wrap;html=1;" vertex="1" parent="1">
          <mxGeometry x="820" y="40" width="80" height="35" as="geometry" />
        </mxCell>
        <mxCell id="q1d7tHSpAYXLzPX4knUf-21" value="PAM 4&amp;nbsp;" style="rounded=0;whiteSpace=wrap;html=1;" vertex="1" parent="1">
          <mxGeometry x="820" y="480" width="80" height="35" as="geometry" />
        </mxCell>
        <mxCell id="q1d7tHSpAYXLzPX4knUf-22" value="Time Windowed Sequence&amp;nbsp;" style="text;html=1;strokeColor=none;fillColor=none;align=center;verticalAlign=middle;whiteSpace=wrap;rounded=0;" vertex="1" parent="1">
          <mxGeometry x="260" y="290" width="100" height="15" as="geometry" />
        </mxCell>
        <mxCell id="q1d7tHSpAYXLzPX4knUf-24" value="Amplitude Phase Data&amp;nbsp;" style="text;html=1;strokeColor=none;fillColor=none;align=center;verticalAlign=middle;whiteSpace=wrap;rounded=0;" vertex="1" parent="1">
          <mxGeometry x="500" y="260" width="40" height="20" as="geometry" />
        </mxCell>
        <mxCell id="q1d7tHSpAYXLzPX4knUf-27" value="Delta Amplitude Phase Data&amp;nbsp;" style="text;html=1;strokeColor=none;fillColor=none;align=center;verticalAlign=middle;whiteSpace=wrap;rounded=0;" vertex="1" parent="1">
          <mxGeometry x="500" y="360" width="40" height="20" as="geometry" />
        </mxCell>
        <mxCell id="q1d7tHSpAYXLzPX4knUf-28" value="Deep Neural Network&amp;nbsp;" style="text;html=1;strokeColor=none;fillColor=none;align=center;verticalAlign=middle;whiteSpace=wrap;rounded=0;" vertex="1" parent="1">
          <mxGeometry x="670" y="235" width="40" height="80" as="geometry" />
        </mxCell>
        <mxCell id="q1d7tHSpAYXLzPX4knUf-51" style="edgeStyle=orthogonalEdgeStyle;rounded=0;orthogonalLoop=1;jettySize=auto;html=1;exitX=1;exitY=0.5;exitDx=0;exitDy=0;entryX=0;entryY=0.5;entryDx=0;entryDy=0;" edge="1" parent="1" source="q1d7tHSpAYXLzPX4knUf-5" target="q1d7tHSpAYXLzPX4knUf-8">
          <mxGeometry relative="1" as="geometry">
            <Array as="points">
              <mxPoint x="420" y="270" />
              <mxPoint x="420" y="160" />
            </Array>
          </mxGeometry>
        </mxCell>
        <mxCell id="q1d7tHSpAYXLzPX4knUf-55" value="Automatic Modulation Classification&amp;nbsp;" style="text;html=1;strokeColor=none;fillColor=none;align=center;verticalAlign=middle;whiteSpace=wrap;rounded=0;" vertex="1" parent="1">
          <mxGeometry x="247.5" y="510" width="40" height="20" as="geometry" />
        </mxCell>
      </root>
    </mxGraphModel>
  </diagram>
</mxfile>
